<?xml version="1.0" encoding="utf-8"?>
<!-- Uploaded to: SVG Repo, www.svgrepo.com, Generator: SVG Repo Mixer Tools -->
<svg fill="#000000" version="1.1" id="Layer_1" xmlns="http://www.w3.org/2000/svg" xmlns:xlink="http://www.w3.org/1999/xlink" 
	 width="800px" height="800px" viewBox="0 0 168 260" xml:space="preserve">
<path d="M23.9,188.7c8.1,0.3,16.2,0.9,23.9,3.4c21.5,7.2,31.2,31,52.9,38c5,1.6,10,2.3,14.9,2.3c27.4,0,51.7-23.3,50.4-52.4
	c-1.4-30-26.9-49.2-53.9-56v14h-4V91c0-7.7-6.3-14-14-14h-2V2H76v75h-2c-7.7,0-14,6.3-14,14v33.3c-15.3,4.1-29.5,11.8-42.1,22.7
	c-9.5,8.2-21.5,22.3-12.2,35C10.3,188.3,16.8,188.4,23.9,188.7z M118.7,175c9.2,0,16.6,5.6,16.6,12.5c0,6.9-7.4,12.5-16.6,12.5
	c-9.2,0-16.6-5.6-16.6-12.5C102.1,180.6,109.5,175,118.7,175z M88,94h12v27.8c-2.7-0.3-5.3-0.6-8-0.8v17h-4V94z M68,94h12v27
	c-2.7,0.2-5.4,0.6-8,1v16h-4V94z M156.8,220.9c3.7-3.9,6.8-8.2,9.2-12.7c-0.1,33-33.4,57.7-65.3,47.5c-21.7-7-31.4-30.7-52.9-38
	c-7.7-2.6-15.8-3.2-23.9-3.4c-7.1-0.2-13.6-0.4-18.2-6.7c-2.7-3.7-4-7.9-3.6-11.7v-8.3c6.3,6.9,14.7,7.2,21.5,7.4l0.1,0
	c6.9,0.2,14.9,0.7,22.1,3.1c9.3,3.1,16.3,10,23.7,17.4c8.3,8.2,16.9,16.6,29.2,20.6c5.5,1.8,11.2,2.7,16.9,2.7
	C130.9,238.8,146,232.3,156.8,220.9z"/>
</svg>