<?xml version="1.0" encoding="utf-8"?>

<!DOCTYPE svg PUBLIC "-//W3C//DTD SVG 1.1//EN" "http://www.w3.org/Graphics/SVG/1.1/DTD/svg11.dtd">
<!-- Uploaded to: SVG Repo, www.svgrepo.com, Generator: SVG Repo Mixer Tools -->
<svg height="800px" width="800px" version="1.1" id="_x32_" xmlns="http://www.w3.org/2000/svg" xmlns:xlink="http://www.w3.org/1999/xlink" 
	 viewBox="0 0 512 512"  xml:space="preserve">
<style type="text/css">
	.st0{fill:#000000;}
</style>
<g>
	<path class="st0" d="M489.779,246.268c-12.582-16.339-29.764-30.678-50.346-42.866v-8.85l-0.489-1.724
		C423.086,136,396.41,101.835,373.221,82.275c-23.173-19.598-42.544-24.685-43.961-25.039l-4.551-1.142L96.008,164.425
		c-17.37,8.236-28.96,24.858-31.062,43.669c-18.819,12.174-34.433,26.284-45.716,42.205C7.063,267.449-0.016,286.929,0,307.417
		c-0.023,21.803,7.992,42.425,21.614,60.385c20.488,26.984,53.291,48.701,93.74,64.024c40.473,15.283,88.756,24.07,140.646,24.078
		c69.188-0.032,131.952-15.574,178.37-41.488c23.204-12.985,42.378-28.607,56.015-46.615c13.622-17.96,21.63-38.582,21.614-60.385
		C512.023,285.291,503.764,264.401,489.779,246.268z M90.661,239.953h322.614v31.386H90.661V239.953z M90.661,288.78h322.614v29.779
		c0,2.323-1.897,4.221-4.22,4.221H94.882c-2.323,0-4.221-1.898-4.221-4.221V288.78z M471.094,353.213
		c-16.543,21.96-45.59,41.898-83,55.984c-37.378,14.134-82.953,22.528-132.094,22.52c-65.52,0.031-124.709-14.961-166.567-38.41
		c-20.937-11.7-37.481-25.464-48.528-40.094c-11.062-14.685-16.693-29.937-16.716-45.795c0.015-14.913,5-29.268,14.788-43.15
		c6.424-9.094,15.133-17.826,25.527-26.031v80.323c0.008,16.78,13.598,30.362,30.378,30.378h314.173
		c16.78-0.016,30.37-13.598,30.378-30.378v-86.41c12.787,8.922,23.338,18.67,31.165,28.858c11.394,14.866,17.19,30.33,17.213,46.41
		C487.788,323.276,482.158,338.528,471.094,353.213z"/>
</g>
</svg>