<?xml version="1.0" ?><!-- Uploaded to: SVG Repo, www.svgrepo.com, Generator: SVG Repo Mixer Tools -->
<svg width="800px" height="800px" viewBox="0 0 24 24" data-name="016_FOOD" id="_016_FOOD" xmlns="http://www.w3.org/2000/svg"><defs><style>.cls-1{fill:#333;}</style></defs><path class="cls-1" d="M12,22a10,10,0,1,1,8.82-5.28,1,1,0,0,1-1.77-.94A8,8,0,1,0,12,20a7.92,7.92,0,0,0,4.74-1.56,1,1,0,0,1,1.19,1.61A9.89,9.89,0,0,1,12,22Z"/><circle class="cls-1" cx="15" cy="15" r="1"/><circle class="cls-1" cx="18" cy="12" r="1"/><circle class="cls-1" cx="15" cy="9" r="1"/><circle class="cls-1" cx="12" cy="12" r="1"/><circle class="cls-1" cx="12" cy="18" r="1"/><circle class="cls-1" cx="6" cy="12" r="1"/><circle class="cls-1" cx="12" cy="6" r="1"/><circle class="cls-1" cx="9" cy="15" r="1"/><circle class="cls-1" cx="9" cy="9" r="1"/></svg>